<svg width="70" height="52" viewBox="0 0 70 52" fill="none" xmlns="http://www.w3.org/2000/svg">
<g clip-path="url(#clip0_19_22)">
<rect width="70" height="52" fill="#081526"/>
<path d="M18.5 3L36.2535 38.25H0.746479L18.5 3Z" fill="white"/>
<path d="M18.5 15L29.3253 39H7.67468L18.5 15Z" fill="#081526"/>
<path d="M3.03533 43.5723C3.01379 43.3707 2.923 43.2137 2.76296 43.1014C2.60446 42.9891 2.39826 42.9329 2.14435 42.9329C1.96585 42.9329 1.81274 42.9598 1.68501 43.0137C1.55729 43.0675 1.45958 43.1406 1.39187 43.233C1.32416 43.3253 1.28954 43.4307 1.288 43.5492C1.288 43.6477 1.31031 43.7331 1.35494 43.8054C1.4011 43.8777 1.46342 43.9393 1.5419 43.9901C1.62038 44.0393 1.70733 44.0808 1.80273 44.1147C1.89814 44.1486 1.99432 44.177 2.09126 44.2001L2.53445 44.3109C2.71295 44.3525 2.88453 44.4086 3.04918 44.4794C3.21538 44.5502 3.36387 44.6394 3.49467 44.7472C3.62701 44.8549 3.73165 44.9849 3.80859 45.1373C3.88554 45.2896 3.92401 45.4681 3.92401 45.6728C3.92401 45.9498 3.85322 46.1937 3.71165 46.4045C3.57008 46.6138 3.36541 46.7776 3.09766 46.8961C2.83144 47.0131 2.50906 47.0716 2.1305 47.0716C1.76272 47.0716 1.44342 47.0146 1.17259 46.9007C0.903291 46.7869 0.692472 46.6207 0.540128 46.4022C0.389323 46.1837 0.307765 45.9174 0.295455 45.6035H1.13796C1.15027 45.7682 1.20105 45.9051 1.29031 46.0144C1.37956 46.1236 1.49574 46.2052 1.63885 46.2591C1.7835 46.3129 1.94508 46.3398 2.12358 46.3398C2.30978 46.3398 2.47289 46.3121 2.61293 46.2567C2.7545 46.1998 2.86529 46.1213 2.94531 46.0213C3.02533 45.9197 3.06611 45.8013 3.06765 45.6658C3.06611 45.5427 3.02995 45.4412 2.95916 45.3612C2.88838 45.2796 2.78912 45.2119 2.6614 45.158C2.53522 45.1026 2.38749 45.0534 2.21822 45.0103L1.6804 44.8718C1.29107 44.7718 0.98331 44.6202 0.757102 44.4171C0.532434 44.2124 0.420099 43.9408 0.420099 43.6023C0.420099 43.3237 0.495502 43.0798 0.646307 42.8706C0.798651 42.6613 1.00562 42.4989 1.26722 42.3835C1.52882 42.2666 1.82505 42.2081 2.1559 42.2081C2.49136 42.2081 2.78527 42.2666 3.03764 42.3835C3.29155 42.4989 3.49083 42.6597 3.63548 42.8659C3.78013 43.0706 3.85476 43.306 3.85938 43.5723H3.03533ZM8.91153 44.6364C8.91153 45.1457 8.81613 45.582 8.62531 45.9451C8.43604 46.3068 8.17751 46.5837 7.84974 46.7761C7.52351 46.9685 7.15342 47.0646 6.73948 47.0646C6.32554 47.0646 5.95468 46.9685 5.62691 46.7761C5.30068 46.5822 5.04215 46.3045 4.85134 45.9428C4.66206 45.5797 4.56743 45.1442 4.56743 44.6364C4.56743 44.127 4.66206 43.6915 4.85134 43.3299C5.04215 42.9667 5.30068 42.689 5.62691 42.4966C5.95468 42.3043 6.32554 42.2081 6.73948 42.2081C7.15342 42.2081 7.52351 42.3043 7.84974 42.4966C8.17751 42.689 8.43604 42.9667 8.62531 43.3299C8.81613 43.6915 8.91153 44.127 8.91153 44.6364ZM8.05056 44.6364C8.05056 44.2778 7.99439 43.9754 7.88206 43.7292C7.77126 43.4815 7.61738 43.2945 7.42041 43.1683C7.22344 43.0406 6.99646 42.9767 6.73948 42.9767C6.4825 42.9767 6.25552 43.0406 6.05855 43.1683C5.86158 43.2945 5.70693 43.4815 5.59459 43.7292C5.4838 43.9754 5.4284 44.2778 5.4284 44.6364C5.4284 44.9949 5.4838 45.2981 5.59459 45.5458C5.70693 45.792 5.86158 45.979 6.05855 46.1067C6.25552 46.2329 6.4825 46.296 6.73948 46.296C6.99646 46.296 7.22344 46.2329 7.42041 46.1067C7.61738 45.979 7.77126 45.792 7.88206 45.5458C7.99439 45.2981 8.05056 44.9949 8.05056 44.6364ZM9.72115 47V42.2727H10.5775V46.2821H12.6595V47H9.72115ZM16.3827 42.2727H17.2391V45.3612C17.2391 45.6997 17.1591 45.9975 16.999 46.2544C16.8405 46.5114 16.6174 46.7122 16.3296 46.8569C16.0419 47 15.7056 47.0716 15.3209 47.0716C14.9347 47.0716 14.5977 47 14.3099 46.8569C14.0222 46.7122 13.799 46.5114 13.6405 46.2544C13.482 45.9975 13.4028 45.6997 13.4028 45.3612V42.2727H14.2591V45.2896C14.2591 45.4866 14.3022 45.662 14.3884 45.8159C14.4761 45.9698 14.5992 46.0906 14.7577 46.1783C14.9162 46.2644 15.104 46.3075 15.3209 46.3075C15.5379 46.3075 15.7256 46.2644 15.8841 46.1783C16.0442 46.0906 16.1673 45.9698 16.2535 45.8159C16.3396 45.662 16.3827 45.4866 16.3827 45.2896V42.2727ZM17.9621 42.9906V42.2727H21.7338V42.9906H20.2727V47H19.4233V42.9906H17.9621ZM23.3172 42.2727V47H22.4609V42.2727H23.3172ZM28.4687 44.6364C28.4687 45.1457 28.3733 45.582 28.1824 45.9451C27.9932 46.3068 27.7346 46.5837 27.4069 46.7761C27.0806 46.9685 26.7106 47.0646 26.2966 47.0646C25.8827 47.0646 25.5118 46.9685 25.184 46.7761C24.8578 46.5822 24.5993 46.3045 24.4085 45.9428C24.2192 45.5797 24.1246 45.1442 24.1246 44.6364C24.1246 44.127 24.2192 43.6915 24.4085 43.3299C24.5993 42.9667 24.8578 42.689 25.184 42.4966C25.5118 42.3043 25.8827 42.2081 26.2966 42.2081C26.7106 42.2081 27.0806 42.3043 27.4069 42.4966C27.7346 42.689 27.9932 42.9667 28.1824 43.3299C28.3733 43.6915 28.4687 44.127 28.4687 44.6364ZM27.6077 44.6364C27.6077 44.2778 27.5515 43.9754 27.4392 43.7292C27.3284 43.4815 27.1745 43.2945 26.9775 43.1683C26.7806 43.0406 26.5536 42.9767 26.2966 42.9767C26.0396 42.9767 25.8126 43.0406 25.6157 43.1683C25.4187 43.2945 25.2641 43.4815 25.1517 43.7292C25.0409 43.9754 24.9855 44.2778 24.9855 44.6364C24.9855 44.9949 25.0409 45.2981 25.1517 45.5458C25.2641 45.792 25.4187 45.979 25.6157 46.1067C25.8126 46.2329 26.0396 46.296 26.2966 46.296C26.5536 46.296 26.7806 46.2329 26.9775 46.1067C27.1745 45.979 27.3284 45.792 27.4392 45.5458C27.5515 45.2981 27.6077 44.9949 27.6077 44.6364ZM33.163 42.2727V47H32.4013L30.1739 43.78H30.1346V47H29.2783V42.2727H30.0446L32.2698 45.495H32.3113V42.2727H33.163ZM36.6652 43.5723C36.6437 43.3707 36.5529 43.2137 36.3928 43.1014C36.2343 42.9891 36.0281 42.9329 35.7742 42.9329C35.5957 42.9329 35.4426 42.9598 35.3149 43.0137C35.1872 43.0675 35.0895 43.1406 35.0218 43.233C34.954 43.3253 34.9194 43.4307 34.9179 43.5492C34.9179 43.6477 34.9402 43.7331 34.9848 43.8054C35.031 43.8777 35.0933 43.9393 35.1718 43.9901C35.2503 44.0393 35.3372 44.0808 35.4326 44.1147C35.528 44.1486 35.6242 44.177 35.7211 44.2001L36.1643 44.3109C36.3428 44.3525 36.5144 44.4086 36.6791 44.4794C36.8453 44.5502 36.9938 44.6394 37.1246 44.7472C37.2569 44.8549 37.3615 44.9849 37.4385 45.1373C37.5154 45.2896 37.5539 45.4681 37.5539 45.6728C37.5539 45.9498 37.4831 46.1937 37.3415 46.4045C37.2 46.6138 36.9953 46.7776 36.7275 46.8961C36.4613 47.0131 36.1389 47.0716 35.7604 47.0716C35.3926 47.0716 35.0733 47.0146 34.8025 46.9007C34.5332 46.7869 34.3224 46.6207 34.17 46.4022C34.0192 46.1837 33.9376 45.9174 33.9253 45.6035H34.7678C34.7802 45.7682 34.8309 45.9051 34.9202 46.0144C35.0094 46.1236 35.1256 46.2052 35.2687 46.2591C35.4134 46.3129 35.575 46.3398 35.7535 46.3398C35.9397 46.3398 36.1028 46.3121 36.2428 46.2567C36.3844 46.1998 36.4952 46.1213 36.5752 46.0213C36.6552 45.9197 36.696 45.8013 36.6975 45.6658C36.696 45.5427 36.6598 45.4412 36.589 45.3612C36.5183 45.2796 36.419 45.2119 36.2913 45.158C36.1651 45.1026 36.0174 45.0534 35.8481 45.0103L35.3103 44.8718C34.921 44.7718 34.6132 44.6202 34.387 44.4171C34.1623 44.2124 34.05 43.9408 34.05 43.6023C34.05 43.3237 34.1254 43.0798 34.2762 42.8706C34.4285 42.6613 34.6355 42.4989 34.8971 42.3835C35.1587 42.2666 35.4549 42.2081 35.7858 42.2081C36.1212 42.2081 36.4152 42.2666 36.6675 42.3835C36.9214 42.4989 37.1207 42.6597 37.2654 42.8659C37.41 43.0706 37.4846 43.306 37.4893 43.5723H36.6652Z" fill="white"/>
<path d="M47.8097 46.0806L31.6566 14.7581L68.4147 17.1891L47.8097 46.0806Z" fill="white"/>
<path d="M48.7557 35.8137L38.3455 12.5565L61.6794 13.713L48.7557 35.8137Z" fill="#081526"/>
<rect width="12.042" height="8.18999" transform="matrix(0.928011 0.372554 -0.409466 0.912326 58.3549 13.1804)" fill="#081526"/>
</g>
<defs>
<clipPath id="clip0_19_22">
<rect width="70" height="52" fill="white"/>
</clipPath>
</defs>
</svg>
