<svg width="777" height="1212" viewBox="0 0 777 1212" fill="none" xmlns="http://www.w3.org/2000/svg">
<g clip-path="url(#clip0_56_116)">
<rect width="777" height="1212" fill="#367DD9"/>
<path d="M772.385 957.551L303.745 955.88C303.548 955.88 303.358 956.562 303.218 957.776C303.079 958.99 303 960.636 303 962.353C303 964.069 303.079 965.716 303.218 966.93C303.358 968.144 303.548 968.825 303.745 968.825L772.385 970.496C772.582 970.496 772.772 969.814 772.912 968.6C773.052 967.387 773.13 965.74 773.13 964.024C773.13 962.307 773.052 960.66 772.912 959.447C772.772 958.233 772.582 957.551 772.385 957.551Z" fill="#CACACA"/>
<path d="M777 412C777 600.671 644.336 759.712 463.311 808.539C433.912 816.448 404.045 821.331 374.01 823.138C372.549 823.23 371.087 823.321 369.616 823.386C361.799 823.791 353.923 823.996 345.988 824C332.192 824 318.559 823.386 305.089 822.159C297.617 821.493 290.207 820.644 282.86 819.612C211.404 809.583 145.647 782.8 90.1054 743.559C83.1655 738.662 76.389 733.569 69.7758 728.28C57.6664 718.635 45.9754 708.19 34.7522 696.992C-39.438 623.001 22.4168 465.07 61.0825 365.642C165.444 97.2868 107.951 0 345.988 0C584.026 0 777 184.453 777 412Z" fill="#FBFBFB"/>
<path d="M281.987 738.405C277.297 748.145 269.657 756.025 261.037 762.685C232.866 768.742 204.247 772.481 175.467 773.865C174.067 773.935 172.667 774.005 171.257 774.055C163.767 774.365 156.22 774.522 148.617 774.525C135.397 774.525 122.334 774.055 109.427 773.115C108.935 770.147 108.868 767.123 109.227 764.135C110.657 752.445 119.527 741.705 131.037 739.225C142.547 736.745 155.667 743.615 159.157 754.855C161.087 733.175 163.297 710.595 174.827 692.135C185.257 675.425 203.327 663.465 222.917 661.325C234.43 660.127 246.045 662.254 256.387 667.455C257.337 667.935 258.277 668.435 259.207 668.955C265.414 672.473 270.889 677.147 275.337 682.725C287.557 698.185 290.547 720.665 281.987 738.405Z" fill="white"/>
<path d="M76.3007 359.64C87.883 355.362 95.1838 348.216 92.6076 343.678C90.0314 339.14 78.5537 338.93 66.9715 343.208C55.3893 347.486 48.0884 354.633 50.6646 359.171C53.2408 363.708 64.7185 363.919 76.3007 359.64Z" fill="#F1F1F1"/>
<path d="M118.244 344.148C129.826 339.87 137.127 332.723 134.551 328.185C131.975 323.648 120.497 323.437 108.915 327.715C97.3324 331.994 90.0315 339.14 92.6077 343.678C95.1839 348.216 106.662 348.426 118.244 344.148Z" fill="#F1F1F1"/>
<path d="M503.962 632H112.038C102.748 631.992 93.8424 629.011 87.2739 623.713C80.7053 618.414 77.0105 611.23 77 603.737V145.263C77.0105 137.77 80.7053 130.586 87.2739 125.287C93.8424 119.989 102.748 117.008 112.038 117H503.962C513.252 117.008 522.158 119.989 528.726 125.287C535.295 130.586 538.989 137.77 539 145.263V603.737C538.989 611.23 535.295 618.414 528.726 623.713C522.158 629.011 513.252 631.992 503.962 632Z" fill="#3F3D56"/>
<path d="M504.223 614H111.777C108.92 613.997 106.181 613.078 104.16 611.445C102.14 609.811 101.003 607.597 101 605.286V143.713C101.003 141.403 102.14 139.189 104.16 137.555C106.181 135.922 108.92 135.003 111.777 135H504.223C507.08 135.003 509.819 135.922 511.84 137.555C513.86 139.189 514.997 141.403 515 143.713V605.286C514.997 607.597 513.86 609.811 511.84 611.445C509.819 613.078 507.08 613.997 504.223 614Z" fill="white"/>
<path d="M193 278.989V455.013C193.001 455.805 193.316 456.565 193.877 457.125C194.437 457.686 195.197 458.001 195.989 458.002H423.16C423.952 458.001 424.712 457.686 425.272 457.125C425.832 456.565 426.147 455.805 426.149 455.013V278.989C426.147 278.197 425.832 277.437 425.272 276.877C424.712 276.316 423.952 276.001 423.16 276H195.989C195.197 276.001 194.437 276.316 193.877 276.877C193.316 277.437 193.001 278.197 193 278.989Z" fill="#CCCCFF"/>
<path d="M287.223 458.002H332.942L330.093 415.238L313.6 419.044L297.558 412.874L297.133 412.714L297.106 412.701C297.101 412.714 297.096 412.727 297.093 412.741C296.841 413.757 291.806 433.917 287.223 458.002Z" fill="#77C7D9"/>
<path d="M259.669 422.22L263.94 458.002H302.473L297.558 412.874L297.511 412.435L297.133 412.714L297.093 412.741L287.587 419.676L259.669 422.22Z" fill="#77C7D9"/>
<path d="M326.18 458.002H360.687L361.186 429.832L335.792 421.409L330.093 415.238C330.093 415.238 328.292 433.804 326.18 458.002Z" fill="#77C7D9"/>
<path d="M243.057 458.002H271.653L269.819 432.369L259.67 422.219C259.67 422.219 251.639 439.065 243.057 458.002Z" fill="#77C7D9"/>
<path d="M352.55 458.002H367.635C367.569 449.792 367.529 444.119 367.529 442.519C367.605 440.044 367.065 437.589 365.957 435.375C364.85 433.161 363.21 431.256 361.185 429.832L353.567 432.369L352.55 458.002Z" fill="#77C7D9"/>
<path d="M354.904 401.782H274.971V368.092C274.971 356.546 283.105 342.664 293.103 337.147C307.137 329.405 322.479 329.269 335.195 336.776C341.18 340.32 346.143 345.357 349.598 351.395C353.052 357.432 354.881 364.263 354.904 371.219V401.782Z" fill="#2F2E41"/>
<path d="M602 544H474V494.33C474 477.307 487.026 456.841 503.036 448.707C525.508 437.292 550.076 437.092 570.438 448.16C580.023 453.385 587.97 460.811 593.503 469.712C599.035 478.614 601.963 488.685 602 498.94V544Z" fill="#2F2E41"/>
<path d="M341.853 385.928C349.501 371.937 344.36 354.395 330.368 346.747C316.377 339.098 298.835 344.24 291.187 358.232C283.539 372.223 288.68 389.765 302.672 397.413C316.663 405.061 334.205 399.919 341.853 385.928Z" fill="#FFB8B8"/>
<path d="M343.963 373.57H302.773L302.676 373.102C302.199 370.647 301.583 368.221 300.831 365.836C299.195 368.232 297.687 370.713 296.312 373.267L296.144 373.57H288.137C287.645 373.569 287.16 373.467 286.71 373.268C286.261 373.069 285.858 372.779 285.527 372.416C285.309 372.176 284.799 371.614 286.908 345.869C286.967 345.256 287.183 344.668 287.536 344.164C287.89 343.66 288.368 343.256 288.924 342.992C306.997 334.555 325.311 334.778 343.362 343.659H343.684L343.797 344.106C347.359 371.509 346.846 372.101 346.628 372.353C346.297 372.735 345.887 373.042 345.427 373.252C344.968 373.461 344.468 373.57 343.963 373.57Z" fill="#2F2E41"/>
<path d="M608.599 972.236C560.322 974.344 533.024 972.81 497.83 941.279C473.87 940.621 454.823 922.736 455.373 901.41C455.922 880.084 475.863 863.268 499.824 863.926L586.823 868.183C610.783 868.841 655.343 867.32 654.793 888.646C654.524 899.117 654.519 912.696 653.578 926.92C652.803 938.865 647.785 950.095 639.485 958.457C631.185 966.819 620.187 971.726 608.599 972.236Z" fill="#2F2E41"/>
<path d="M453.532 1171.87L428.605 1176.07L401.035 1078.83L437.824 1072.63L453.532 1171.87Z" fill="#FFB6B6"/>
<path d="M443.628 969.108C490.102 980.902 524.419 967.62 552.684 969.342C568.751 941.358 620.038 905.814 592.055 890.852C576.471 882.52 418.05 863.312 397.253 885.48C343.775 942.484 410.172 1122.5 410.172 1122.5L447.102 1122.01L458.901 1104.63L449.397 1085.69L458.387 1070.2L448.099 1054.24L443.628 969.108Z" fill="#2F2E41"/>
<path d="M470.677 1191.3L454.346 1195.81L447.303 1180.7L443.966 1198.68L400.653 1210.65C398.577 1211.22 396.378 1211.1 394.376 1210.29C392.374 1209.48 390.675 1208.03 389.526 1206.16C388.378 1204.28 387.84 1202.08 387.992 1199.87C388.143 1197.65 388.976 1195.55 390.369 1193.86L418.56 1159.64L414.387 1143.55L451.349 1135.74L470.677 1191.3Z" fill="#2F2E41"/>
<path d="M657.805 1140.18L639.613 1158.26L563.374 1094.44L590.224 1067.75L657.805 1140.18Z" fill="#FFB6B6"/>
<path d="M511.156 939.112C553.758 956.048 591.017 937.212 627.829 915.379C625.634 882.929 624.408 836.14 593.146 840.252C575.736 842.541 431.844 867.084 426.944 897.525C414.345 975.801 594.945 1125.01 594.945 1125.01L625.056 1102.93L625.189 1081.71L606.936 1071.7L605.801 1053.68L588.549 1046.59L511.156 939.112Z" fill="#2F2E41"/>
<path d="M682.61 1146.1L671.661 1159.39L657.546 1151.1L664.702 1167.85L635.662 1203.11C634.27 1204.8 632.391 1205.99 630.3 1206.5C628.208 1207.01 626.013 1206.81 624.036 1205.94C622.058 1205.08 620.401 1203.58 619.307 1201.67C618.213 1199.76 617.738 1197.54 617.953 1195.33L622.301 1150.64L610.007 1139.85L636.111 1111.74L682.61 1146.1Z" fill="#2F2E41"/>
<path d="M488.694 874.551C485.694 874.551 483.989 873.943 483.329 872.641C482.36 870.729 476.176 868.232 478.122 865.339C479.479 863.323 482.755 860.623 481.494 859.069C476.635 853.081 464.507 681.331 461.649 657.9C460.946 650.648 461.899 643.327 464.429 636.523C472.436 613.108 483.365 605.911 505.137 591.577C506.905 590.413 508.745 589.198 510.659 587.93C513.134 586.289 512.996 590.123 512.85 584.359C512.688 577.952 512.52 571.327 515.561 567.186L515.759 566.916L516.078 566.839C523.433 565.084 548.169 561.826 562.818 566.863L563.02 566.934L563.172 567.089C566.651 570.681 566.969 577.638 567.275 584.366C567.526 589.889 567.764 585.827 569.733 588.093C577.258 596.751 588.597 601.754 598.055 604.592C603.983 606.35 609.174 610.099 612.806 615.246C616.437 620.392 618.301 626.642 618.102 633.006C617.077 665.06 617.883 715.744 612.582 751.463C603.76 810.909 684.3 896.758 638.17 898.522C638.287 898.709 638.353 898.925 638.359 899.148C638.366 899.37 638.313 899.59 638.207 899.784C634.914 906.134 500.005 874.551 488.694 874.551Z" fill="#77C7D9"/>
<path d="M535.382 562.067C565.751 562.067 590.37 536.656 590.37 505.31C590.37 473.963 565.751 448.552 535.382 448.552C505.012 448.552 480.393 473.963 480.393 505.31C480.393 536.656 505.012 562.067 535.382 562.067Z" fill="#2F2E41"/>
<path d="M539.808 566.752C561.624 566.114 578.809 547.342 578.191 524.824C577.573 502.306 559.386 484.569 537.57 485.207C515.754 485.845 498.569 504.617 499.188 527.135C499.806 549.653 517.992 567.39 539.808 566.752Z" fill="#FFB6B6"/>
<path d="M539.071 463.774L523.052 464.242C512.957 464.546 503.39 468.971 496.453 476.547C489.515 484.123 485.773 494.23 486.047 504.651L486.057 505.017L486.349 505.206C495.056 511.152 505.333 514.171 515.769 513.846L516.67 513.82L525.521 513.406C527.01 509.449 527.508 505.168 526.968 500.959C528.305 504.949 529.349 509.036 530.09 513.187L569.805 511.321C572.116 511.203 574.291 510.158 575.865 508.408C577.44 506.658 578.289 504.342 578.233 501.955C577.935 491.535 573.645 481.663 566.302 474.504C558.96 467.346 549.167 463.487 539.071 463.774Z" fill="#2F2E41"/>
<path d="M582.402 775.37H487.872C484.635 775.367 481.531 774.038 479.242 771.675C476.954 769.313 475.666 766.109 475.662 762.768V657.889C475.666 654.547 476.953 651.344 479.242 648.982C481.531 646.619 484.635 645.29 487.872 645.286H582.402C585.639 645.29 588.742 646.619 591.031 648.982C593.32 651.344 594.607 654.547 594.611 657.889V762.768C594.607 766.109 593.32 769.313 591.031 771.675C588.742 774.038 585.639 775.367 582.402 775.37Z" fill="#3F3D56"/>
<path d="M490.531 667.941C494.441 667.941 497.611 664.669 497.611 660.633C497.611 656.597 494.441 653.325 490.531 653.325C486.621 653.325 483.451 656.597 483.451 660.633C483.451 664.669 486.621 667.941 490.531 667.941Z" fill="#E6E6E6"/>
<path d="M490.531 665.018C492.877 665.018 494.779 663.055 494.779 660.633C494.779 658.212 492.877 656.249 490.531 656.249C488.185 656.249 486.283 658.212 486.283 660.633C486.283 663.055 488.185 665.018 490.531 665.018Z" fill="#3F3D56"/>
<path d="M520.222 770.278L455.292 753.283L445.199 787.766C445.199 787.766 515.054 793.105 517.665 793.13C519.618 795.982 522.363 798.155 525.538 799.362C528.713 800.569 532.168 800.752 535.446 799.888C538.724 799.024 541.671 797.153 543.896 794.522C546.122 791.892 547.521 788.626 547.909 785.157C548.298 781.687 547.656 778.178 546.07 775.093C544.484 772.009 542.028 769.494 539.027 767.881C536.026 766.268 532.621 765.634 529.264 766.062C525.906 766.49 522.753 767.96 520.222 770.278Z" fill="#FFB6B6"/>
<path d="M476.892 613.903C430.596 639.438 410.307 696.363 381.904 746.39C381.317 751.856 381.842 757.388 383.444 762.632C385.047 767.877 387.692 772.719 391.211 776.848C394.73 780.977 399.044 784.303 403.879 786.613C408.714 788.923 413.963 790.167 419.29 790.264L474.856 791.585L467.891 756.196L449.306 745.296L471.274 690.443L476.892 613.903Z" fill="#77C7D9"/>
<path d="M545.518 669.189L589.834 724.696L571.533 754.627C571.533 754.627 526.975 682.725 525.969 680.237C522.674 679.444 519.69 677.637 517.412 675.055C515.134 672.473 513.668 669.238 513.21 665.778C512.752 662.318 513.322 658.796 514.845 655.677C516.368 652.559 518.773 649.991 521.74 648.314C524.708 646.637 528.099 645.929 531.465 646.285C534.831 646.64 538.013 648.042 540.59 650.305C543.167 652.567 545.018 655.584 545.898 658.956C546.778 662.328 546.646 665.896 545.518 669.189Z" fill="#FFB6B6"/>
<path d="M612.312 615.323C625.687 607.694 664.703 725.357 623.648 792.278C618.963 794.896 613.8 796.477 608.489 796.919C603.179 797.361 597.837 796.654 592.806 794.844C587.775 793.033 583.166 790.16 579.272 786.406C575.379 782.652 572.287 778.101 570.194 773.043L548.943 719.357L582.994 708.152L599.256 727.413L596.993 689.093L616.347 634.63L612.312 615.323Z" fill="#77C7D9"/>
</g>
<defs>
<clipPath id="clip0_56_116">
<rect width="777" height="1212" fill="white"/>
</clipPath>
</defs>
</svg>
