<svg width="74" height="47" viewBox="0 0 74 47" fill="none" xmlns="http://www.w3.org/2000/svg">
<g clip-path="url(#clip0_58_129)">
<rect width="74" height="47" fill="#081526"/>
<path d="M20.5 0L38.2535 35.25H2.74648L20.5 0Z" fill="white"/>
<path d="M20.5 12L31.3253 36H9.67468L20.5 12Z" fill="#081526"/>
<path d="M5.03533 40.5723C5.01379 40.3707 4.923 40.2137 4.76296 40.1014C4.60446 39.9891 4.39826 39.9329 4.14435 39.9329C3.96585 39.9329 3.81274 39.9598 3.68501 40.0137C3.55729 40.0675 3.45958 40.1406 3.39187 40.233C3.32416 40.3253 3.28954 40.4307 3.288 40.5492C3.288 40.6477 3.31031 40.7331 3.35494 40.8054C3.4011 40.8777 3.46342 40.9393 3.5419 40.9901C3.62038 41.0393 3.70733 41.0808 3.80273 41.1147C3.89814 41.1486 3.99432 41.177 4.09126 41.2001L4.53445 41.3109C4.71295 41.3525 4.88453 41.4086 5.04918 41.4794C5.21538 41.5502 5.36387 41.6394 5.49467 41.7472C5.62701 41.8549 5.73165 41.9849 5.80859 42.1373C5.88554 42.2896 5.92401 42.4681 5.92401 42.6728C5.92401 42.9498 5.85322 43.1937 5.71165 43.4045C5.57008 43.6138 5.36541 43.7776 5.09766 43.8961C4.83144 44.0131 4.50906 44.0716 4.1305 44.0716C3.76272 44.0716 3.44342 44.0146 3.17259 43.9007C2.90329 43.7869 2.69247 43.6207 2.54013 43.4022C2.38932 43.1837 2.30777 42.9174 2.29545 42.6035H3.13796C3.15027 42.7682 3.20105 42.9051 3.29031 43.0144C3.37956 43.1236 3.49574 43.2052 3.63885 43.2591C3.7835 43.3129 3.94508 43.3398 4.12358 43.3398C4.30978 43.3398 4.47289 43.3121 4.61293 43.2567C4.7545 43.1998 4.86529 43.1213 4.94531 43.0213C5.02533 42.9197 5.06611 42.8013 5.06765 42.6658C5.06611 42.5427 5.02995 42.4412 4.95916 42.3612C4.88838 42.2796 4.78912 42.2119 4.6614 42.158C4.53522 42.1026 4.38749 42.0534 4.21822 42.0103L3.6804 41.8718C3.29107 41.7718 2.98331 41.6202 2.7571 41.4171C2.53243 41.2124 2.4201 40.9408 2.4201 40.6023C2.4201 40.3237 2.4955 40.0798 2.64631 39.8706C2.79865 39.6613 3.00562 39.4989 3.26722 39.3835C3.52882 39.2666 3.82505 39.2081 4.1559 39.2081C4.49136 39.2081 4.78527 39.2666 5.03764 39.3835C5.29155 39.4989 5.49083 39.6597 5.63548 39.8659C5.78013 40.0706 5.85476 40.306 5.85938 40.5723H5.03533ZM10.9115 41.6364C10.9115 42.1457 10.8161 42.582 10.6253 42.9451C10.436 43.3068 10.1775 43.5837 9.84974 43.7761C9.52351 43.9685 9.15342 44.0646 8.73948 44.0646C8.32554 44.0646 7.95468 43.9685 7.62691 43.7761C7.30068 43.5822 7.04215 43.3045 6.85134 42.9428C6.66206 42.5797 6.56743 42.1442 6.56743 41.6364C6.56743 41.127 6.66206 40.6915 6.85134 40.3299C7.04215 39.9667 7.30068 39.689 7.62691 39.4966C7.95468 39.3043 8.32554 39.2081 8.73948 39.2081C9.15342 39.2081 9.52351 39.3043 9.84974 39.4966C10.1775 39.689 10.436 39.9667 10.6253 40.3299C10.8161 40.6915 10.9115 41.127 10.9115 41.6364ZM10.0506 41.6364C10.0506 41.2778 9.99439 40.9754 9.88206 40.7292C9.77126 40.4815 9.61738 40.2945 9.42041 40.1683C9.22344 40.0406 8.99646 39.9767 8.73948 39.9767C8.4825 39.9767 8.25552 40.0406 8.05855 40.1683C7.86158 40.2945 7.70693 40.4815 7.59459 40.7292C7.4838 40.9754 7.4284 41.2778 7.4284 41.6364C7.4284 41.9949 7.4838 42.2981 7.59459 42.5458C7.70693 42.792 7.86158 42.979 8.05855 43.1067C8.25552 43.2329 8.4825 43.296 8.73948 43.296C8.99646 43.296 9.22344 43.2329 9.42041 43.1067C9.61738 42.979 9.77126 42.792 9.88206 42.5458C9.99439 42.2981 10.0506 41.9949 10.0506 41.6364ZM11.7211 44V39.2727H12.5775V43.2821H14.6595V44H11.7211ZM18.3827 39.2727H19.2391V42.3612C19.2391 42.6997 19.1591 42.9975 18.999 43.2544C18.8405 43.5114 18.6174 43.7122 18.3296 43.8569C18.0419 44 17.7056 44.0716 17.3209 44.0716C16.9347 44.0716 16.5977 44 16.3099 43.8569C16.0222 43.7122 15.799 43.5114 15.6405 43.2544C15.482 42.9975 15.4028 42.6997 15.4028 42.3612V39.2727H16.2591V42.2896C16.2591 42.4866 16.3022 42.662 16.3884 42.8159C16.4761 42.9698 16.5992 43.0906 16.7577 43.1783C16.9162 43.2644 17.104 43.3075 17.3209 43.3075C17.5379 43.3075 17.7256 43.2644 17.8841 43.1783C18.0442 43.0906 18.1673 42.9698 18.2535 42.8159C18.3396 42.662 18.3827 42.4866 18.3827 42.2896V39.2727ZM19.9621 39.9906V39.2727H23.7338V39.9906H22.2727V44H21.4233V39.9906H19.9621ZM25.3172 39.2727V44H24.4609V39.2727H25.3172ZM30.4687 41.6364C30.4687 42.1457 30.3733 42.582 30.1824 42.9451C29.9932 43.3068 29.7346 43.5837 29.4069 43.7761C29.0806 43.9685 28.7106 44.0646 28.2966 44.0646C27.8827 44.0646 27.5118 43.9685 27.184 43.7761C26.8578 43.5822 26.5993 43.3045 26.4085 42.9428C26.2192 42.5797 26.1246 42.1442 26.1246 41.6364C26.1246 41.127 26.2192 40.6915 26.4085 40.3299C26.5993 39.9667 26.8578 39.689 27.184 39.4966C27.5118 39.3043 27.8827 39.2081 28.2966 39.2081C28.7106 39.2081 29.0806 39.3043 29.4069 39.4966C29.7346 39.689 29.9932 39.9667 30.1824 40.3299C30.3733 40.6915 30.4687 41.127 30.4687 41.6364ZM29.6077 41.6364C29.6077 41.2778 29.5515 40.9754 29.4392 40.7292C29.3284 40.4815 29.1745 40.2945 28.9775 40.1683C28.7806 40.0406 28.5536 39.9767 28.2966 39.9767C28.0396 39.9767 27.8126 40.0406 27.6157 40.1683C27.4187 40.2945 27.2641 40.4815 27.1517 40.7292C27.0409 40.9754 26.9855 41.2778 26.9855 41.6364C26.9855 41.9949 27.0409 42.2981 27.1517 42.5458C27.2641 42.792 27.4187 42.979 27.6157 43.1067C27.8126 43.2329 28.0396 43.296 28.2966 43.296C28.5536 43.296 28.7806 43.2329 28.9775 43.1067C29.1745 42.979 29.3284 42.792 29.4392 42.5458C29.5515 42.2981 29.6077 41.9949 29.6077 41.6364ZM35.163 39.2727V44H34.4013L32.1739 40.78H32.1346V44H31.2783V39.2727H32.0446L34.2698 42.495H34.3113V39.2727H35.163ZM38.6652 40.5723C38.6437 40.3707 38.5529 40.2137 38.3928 40.1014C38.2343 39.9891 38.0281 39.9329 37.7742 39.9329C37.5957 39.9329 37.4426 39.9598 37.3149 40.0137C37.1872 40.0675 37.0895 40.1406 37.0218 40.233C36.954 40.3253 36.9194 40.4307 36.9179 40.5492C36.9179 40.6477 36.9402 40.7331 36.9848 40.8054C37.031 40.8777 37.0933 40.9393 37.1718 40.9901C37.2503 41.0393 37.3372 41.0808 37.4326 41.1147C37.528 41.1486 37.6242 41.177 37.7211 41.2001L38.1643 41.3109C38.3428 41.3525 38.5144 41.4086 38.6791 41.4794C38.8453 41.5502 38.9938 41.6394 39.1246 41.7472C39.2569 41.8549 39.3615 41.9849 39.4385 42.1373C39.5154 42.2896 39.5539 42.4681 39.5539 42.6728C39.5539 42.9498 39.4831 43.1937 39.3415 43.4045C39.2 43.6138 38.9953 43.7776 38.7275 43.8961C38.4613 44.0131 38.1389 44.0716 37.7604 44.0716C37.3926 44.0716 37.0733 44.0146 36.8025 43.9007C36.5332 43.7869 36.3224 43.6207 36.17 43.4022C36.0192 43.1837 35.9376 42.9174 35.9253 42.6035H36.7678C36.7802 42.7682 36.8309 42.9051 36.9202 43.0144C37.0094 43.1236 37.1256 43.2052 37.2687 43.2591C37.4134 43.3129 37.575 43.3398 37.7535 43.3398C37.9397 43.3398 38.1028 43.3121 38.2428 43.2567C38.3844 43.1998 38.4952 43.1213 38.5752 43.0213C38.6552 42.9197 38.696 42.8013 38.6975 42.6658C38.696 42.5427 38.6598 42.4412 38.589 42.3612C38.5183 42.2796 38.419 42.2119 38.2913 42.158C38.1651 42.1026 38.0174 42.0534 37.8481 42.0103L37.3103 41.8718C36.921 41.7718 36.6132 41.6202 36.387 41.4171C36.1623 41.2124 36.05 40.9408 36.05 40.6023C36.05 40.3237 36.1254 40.0798 36.2762 39.8706C36.4285 39.6613 36.6355 39.4989 36.8971 39.3835C37.1587 39.2666 37.4549 39.2081 37.7858 39.2081C38.1212 39.2081 38.4152 39.2666 38.6675 39.3835C38.9214 39.4989 39.1207 39.6597 39.2654 39.8659C39.41 40.0706 39.4846 40.306 39.4893 40.5723H38.6652Z" fill="white"/>
<path d="M50.0591 39.7078L33.719 10.9149L70.4771 13.3458L50.0591 39.7078Z" fill="white"/>
<path d="M50.7557 32.8137L40.3455 9.55646L63.6794 10.713L50.7557 32.8137Z" fill="#081526"/>
<path d="M59.5 8.76318L70.6751 13.2495L70.6751 20.7214L59.5 16.2351L59.5 8.76318Z" fill="#081526"/>
</g>
<defs>
<clipPath id="clip0_58_129">
<rect width="74" height="47" fill="white"/>
</clipPath>
</defs>
</svg>
