<svg width="71" height="50" viewBox="0 0 71 50" fill="none" xmlns="http://www.w3.org/2000/svg">
<path d="M67.2133 0H3.78667C1.69535 0 0 1.90113 0 4.24628V45.7537C0 48.0989 1.69535 50 3.78667 50H67.2133C69.3046 50 71 48.0989 71 45.7537V4.24628C71 1.90113 69.3046 0 67.2133 0Z" fill="#0E4595"/>
<path d="M26.3361 35.4807L29.4942 14.6992H34.5456L31.3852 35.4807H26.3361Z" fill="white"/>
<path d="M49.6344 15.1472C48.6336 14.7262 47.0656 14.2744 45.1072 14.2744C40.116 14.2744 36.6001 17.093 36.5702 21.1326C36.542 24.1187 39.0801 25.7845 40.9962 26.7786C42.9623 27.7971 43.6234 28.4468 43.614 29.3564C43.6015 30.7494 42.0439 31.3858 40.592 31.3858C38.5702 31.3858 37.4961 31.0708 35.8372 30.2949L35.1863 29.9645L34.4774 34.6168C35.6572 35.1968 37.8389 35.6995 40.1042 35.7255C45.4139 35.7255 48.8609 32.9392 48.9001 28.6255C48.9191 26.2615 47.5734 24.4623 44.6591 22.9792C42.8935 22.0178 41.8122 21.3763 41.8237 20.4029C41.8237 19.5391 42.7389 18.6154 44.7164 18.6154C46.3682 18.5866 47.5647 18.9905 48.497 19.4116L48.9497 19.6514L49.6344 15.1472Z" fill="white"/>
<path d="M62.6329 14.6992H58.7297C57.5205 14.6992 56.6157 15.0693 56.0846 16.4226L48.5828 35.4675H53.887C53.887 35.4675 54.7544 32.9068 54.9505 32.3445C55.5302 32.3445 60.683 32.3535 61.4197 32.3535C61.5707 33.081 62.0342 35.4675 62.0342 35.4675H66.7214L62.6329 14.6992ZM56.4401 28.1182C56.8579 26.9209 58.4526 22.309 58.4526 22.309C58.4228 22.3643 58.8673 21.1058 59.1224 20.3255L59.4638 22.1173C59.4638 22.1173 60.4311 27.0779 60.6332 28.1181H56.4401V28.1182Z" fill="white"/>
<path d="M4.34315 14.699L4.27863 15.1315C6.27524 15.6735 8.05859 16.4578 9.6199 17.4336L14.102 35.4475L19.4464 35.4405L27.3987 14.699H22.048L17.1026 28.8705L16.5757 25.9906C16.5513 25.9027 16.5249 25.8145 16.4978 25.7263L14.7781 16.4535C14.4723 15.1375 13.5855 14.7448 12.4884 14.699H4.34315Z" fill="white"/>
</svg>
